<svg xmlns="http://www.w3.org/2000/svg" width="48" height="48" viewBox="0 0 32 32"><title>docs</title><polygon points="3 32 2 31 2 0 28 0 29 1 29 32 5 32 3 32" style="fill:#808285"/><rect width="32" height="32" style="fill:none"/><rect x="2" width="26" height="4" style="fill:#da9028"/><rect x="2" y="4" width="26" height="27" style="fill:#fbf06b"/><rect x="2" y="4" width="26" height="1" style="fill:#c6bb2f"/><rect x="2" y="7" width="26" height="1" style="fill:#b4d88f"/><rect x="2" y="10" width="26" height="1" style="fill:#b4d88f"/><rect x="2" y="13" width="26" height="1" style="fill:#b4d88f"/><rect x="2" y="16" width="26" height="1" style="fill:#b4d88f"/><rect x="2" y="19" width="26" height="1" style="fill:#b4d88f"/><rect x="2" y="22" width="26" height="1" style="fill:#b4d88f"/><rect x="2" y="25" width="26" height="1" style="fill:#b4d88f"/><rect x="2" y="28" width="26" height="1" style="fill:#b4d88f"/><rect x="4" y="4" width="1" height="27" style="fill:#db1f26;opacity:0.5"/><path d="M11.061,5.9v6.535c0,.481.011,1.028.044,1.4h-.882l-.045-.938h-.022a2,2,0,0,1-1.844,1.061A2.465,2.465,0,0,1,6,11.21c-.011-1.8,1.106-2.905,2.424-2.905a1.807,1.807,0,0,1,1.631.827h.023V5.9Zm-.983,4.726a1.768,1.768,0,0,0-.045-.414A1.446,1.446,0,0,0,8.614,9.076c-1.017,0-1.62.894-1.62,2.089,0,1.1.536,2,1.6,2a1.478,1.478,0,0,0,1.441-1.173,1.743,1.743,0,0,0,.045-.425Z" style="fill:#231f20"/><path d="M17.588,11.087A2.643,2.643,0,0,1,14.9,13.958,2.57,2.57,0,0,1,12.3,11.176a2.64,2.64,0,0,1,2.681-2.871A2.56,2.56,0,0,1,17.588,11.087Zm-4.29.056c0,1.184.681,2.077,1.642,2.077.939,0,1.643-.882,1.643-2.1,0-.916-.458-2.077-1.62-2.077S13.3,10.115,13.3,11.143Z" style="fill:#231f20"/><path d="M22.686,13.634a3.623,3.623,0,0,1-1.553.313,2.569,2.569,0,0,1-2.693-2.76,2.748,2.748,0,0,1,2.9-2.871,3.289,3.289,0,0,1,1.363.28l-.224.759A2.277,2.277,0,0,0,21.345,9.1a1.871,1.871,0,0,0-1.91,2.045,1.854,1.854,0,0,0,1.876,2.022,2.782,2.782,0,0,0,1.206-.268Z" style="fill:#231f20"/><path d="M23.705,12.83a2.569,2.569,0,0,0,1.3.39c.715,0,1.05-.357,1.05-.8,0-.469-.279-.726-1-.994-.972-.347-1.43-.882-1.43-1.53A1.668,1.668,0,0,1,25.48,8.305a2.7,2.7,0,0,1,1.329.335l-.245.715a2.1,2.1,0,0,0-1.106-.312c-.581,0-.9.335-.9.737,0,.447.323.648,1.027.916.938.357,1.419.827,1.419,1.631,0,.949-.737,1.62-2.022,1.62a3.084,3.084,0,0,1-1.52-.369Z" style="fill:#231f20"/></svg>
