<svg xmlns="http://www.w3.org/2000/svg" width="16" height="16" viewBox="0 0 16 16"><rect width="16" height="16" style="fill:none"/><path d="M3.165,1.268C3.729.86,4.854.408,8.182.449s3.763,2.134,3.763,2.134,3.086,7.7,3.015,8.4a4.84,4.84,0,0,1-2.64,3.369c-1.811.849-3.682,1.588-5.351,1.183S1.284,5.941,1.091,5.173,1.081,2.775,3.165,1.268Z" style="fill:#353535"/><path d="M3.691,1.855A8.114,8.114,0,0,1,7.487.98c1.467,0,3.2.541,3.659,1.451.652,1.351-1.867,2.775-2.27,2.992-.034.018-1.106.539-1.106.539A14.083,14.083,0,0,0,11,4.8a.735.735,0,0,1,.989.24c.444.815,2.448,5.281,2.147,6.419-.366,1.386-3.56,3.641-5.745,3.651S3.833,9.032,3.623,8.536c-.111-.263.192-.991.89-1.426,0,0-1.537.364-2-.3A2.727,2.727,0,0,1,1.921,4.8,3.88,3.88,0,0,1,3.691,1.855Z" style="fill:#ededed"/><path d="M5.745,2.906c-.793.269-1.882,1.053-1.8,1.521s1.414.129,2.455-.316S8.107,2.882,7.966,2.636,6.435,2.671,5.745,2.906Z" style="fill:#353535"/><path d="M6.291,6.563s3.661-.906,5.063.8c.2.24-.026.288.028.4s.215.027.363.385c.254.619.561,1.177.785,1.692.161.372.006.4.076.535s.284.184.341.3a2.212,2.212,0,0,1,.363,1.152,6.207,6.207,0,0,1-1.517,1.649c-.526.405,1.487-.678,2.013-1.841S12.558,6.5,12.046,5.817c-.428-.567-.343-.851-1.287-.747A24.522,24.522,0,0,1,6.291,6.563Z" style="fill:#b0b0b1"/><path d="M3.956,7.869c-.009.013.01-.011,0,0-.177.205-.358.291-.161.762a19.18,19.18,0,0,0,2.988,5.4c.877.926,1.259.8,1.259.8s-.917-1.149-1.572-2.188c-.051-.081.078-.227-.011-.249a.486.486,0,0,1-.272-.223c-.315-.564-.821-1.4-1.262-2.133-.038-.063-.014-.164-.05-.224s-.144-.1-.184-.165c-.247-.412-.454-.759-.563-.959A1.339,1.339,0,0,1,3.956,7.869Z" style="fill:#b0b0b1"/><path d="M4.01,5.449c-1.262.089-1.115-.425-.844-.89,0,0-.727.873-.263.975a4.183,4.183,0,0,0,1.911-.215Z" style="fill:#b0b0b1"/><path d="M8.675,4.277s.927-.509,1.142-.972.1-.543.1-.543.282.113.135.475a1.505,1.505,0,0,1-.791.814A3.206,3.206,0,0,1,8.675,4.277Z" style="fill:#b0b0b1"/></svg>
