<svg xmlns="http://www.w3.org/2000/svg" width="48" height="48" viewBox="0 0 32 32"><defs><linearGradient id="a" x1="15.978" y1="1.274" x2="15.978" y2="30.634" gradientUnits="userSpaceOnUse"><stop offset="0" stop-color="#5ac9e8"/><stop offset="1" stop-color="#1c7db6"/></linearGradient><linearGradient id="b" x1="22.549" y1="1.274" x2="22.549" y2="30.634" gradientUnits="userSpaceOnUse"><stop offset="0" stop-color="#f3f2f3"/><stop offset="1" stop-color="#d6e2ec"/></linearGradient></defs><rect width="32" height="32" style="fill:none"/><rect x="0.25" y="1.274" width="31.456" height="29.359" rx="2" ry="2" style="fill:url(#a)"/><path d="M16.516,1.274h14.11s1.053.427,1.078,1.1-.148,26.458-.151,27.218a1.026,1.026,0,0,1-.977,1.028c-.326.025-11.353,0-11.353,0a50.013,50.013,0,0,1-.853-6.642,28.615,28.615,0,0,0-.3-5.213c-.251-.827-.38-.637-.877-.6s-3.342.15-3.76-.176c-.225-.476.526-8.3.9-10.25A30.027,30.027,0,0,1,16.516,1.274Z" style="fill:url(#b)"/><path d="M23.078,8.636a.627.627,0,0,0-.627.626v2.122a.627.627,0,0,0,.627.626.615.615,0,0,0,.616-.626V9.262a.615.615,0,0,0-.616-.626Z"/><path d="M8.9,12.01a.626.626,0,0,0,.626-.626V9.262a.627.627,0,0,0-1.253,0v2.122a.627.627,0,0,0,.627.626Z"/><path d="M31.335,28.793c0,.071,0,.142,0,.212s0,.132,0,.2a2.514,2.514,0,0,1-.032.371.972.972,0,0,1-.089.276.878.878,0,0,1-.164.225.9.9,0,0,1-.226.164.958.958,0,0,1-.274.089,2.542,2.542,0,0,1-.374.032c-.064,0-.127,0-.2,0H19.717a57.038,57.038,0,0,1-.813-5.81c0-.039-.006-.079-.009-.119,4.787-.851,6.678-3.606,6.77-3.744a.49.49,0,0,0-.815-.543,7.253,7.253,0,0,1-2.015,1.782,11.471,11.471,0,0,1-4.012,1.518c-.1-1.488-.151-2.967-.151-4.41A1.206,1.206,0,0,0,17.4,17.69H14.14a.356.356,0,0,1-.242-.065.34.34,0,0,1-.046-.231c0-.062.008-.15.013-.264a70.815,70.815,0,0,1,.837-7.89A26.1,26.1,0,0,1,17,1.57H29.976l.2,0a2.61,2.61,0,0,1,.369.031.98.98,0,0,1,.277.091.9.9,0,0,1,.388.387.983.983,0,0,1,.091.279,2.61,2.61,0,0,1,.031.369q0,.1,0,.2c0,.07,0,.141,0,.212V28.793ZM2.24,30.363H1.991c-.064,0-.128,0-.194,0a2.648,2.648,0,0,1-.37-.031.974.974,0,0,1-.276-.091.863.863,0,0,1-.225-.163.909.909,0,0,1-.164-.225,1,1,0,0,1-.09-.278A2.61,2.61,0,0,1,.641,29.2c0-.066,0-.133,0-.194V2.929c0-.066,0-.133,0-.2a2.524,2.524,0,0,1,.032-.37.955.955,0,0,1,.089-.275.883.883,0,0,1,.164-.226.9.9,0,0,1,.226-.164.969.969,0,0,1,.274-.089A2.526,2.526,0,0,1,1.8,1.573l.2,0H15.912a27.665,27.665,0,0,0-2.179,7.521,71.957,71.957,0,0,0-.848,7.995c0,.108-.008.191-.012.25a1.242,1.242,0,0,0,.311.962,1.272,1.272,0,0,0,.956.374H17.4c.19,0,.295,0,.295.366,0,1.491.055,3.02.16,4.558a16.151,16.151,0,0,1-1.89.109,12.544,12.544,0,0,1-6.839-1.773,7.052,7.052,0,0,1-1.982-1.78.49.49,0,0,0-.821.534c.106.163,2.672,4,9.642,4a17.465,17.465,0,0,0,1.961-.109l0,.06c.164,1.99.531,4.406.791,5.729ZM31.9,2.924c0-.07,0-.139,0-.209a3.017,3.017,0,0,0-.04-.455,1.55,1.55,0,0,0-.142-.433,1.5,1.5,0,0,0-.268-.368,1.453,1.453,0,0,0-.369-.268,1.567,1.567,0,0,0-.432-.143,3.163,3.163,0,0,0-.455-.039l-.209,0H1.991l-.209,0a3.151,3.151,0,0,0-.455.039A1.567,1.567,0,0,0,.9,1.191a1.453,1.453,0,0,0-.369.268,1.472,1.472,0,0,0-.268.368,1.55,1.55,0,0,0-.142.433,3.017,3.017,0,0,0-.04.455c0,.07,0,.139,0,.209s0,.121,0,.182V28.827c0,.061,0,.121,0,.182s0,.14,0,.209a3.017,3.017,0,0,0,.04.455,1.529,1.529,0,0,0,.142.433,1.447,1.447,0,0,0,.637.636,1.535,1.535,0,0,0,.432.143,3.152,3.152,0,0,0,.455.04c.07,0,.14,0,.209,0h27.99c.069,0,.139,0,.209,0a3.165,3.165,0,0,0,.455-.04,1.535,1.535,0,0,0,.432-.143,1.474,1.474,0,0,0,.369-.267,1.5,1.5,0,0,0,.268-.369,1.529,1.529,0,0,0,.142-.433,3.017,3.017,0,0,0,.04-.455c0-.069,0-.139,0-.209s0-.144,0-.216V3.14c0-.072,0-.144,0-.216Z"/></svg>
