<svg xmlns="http://www.w3.org/2000/svg" width="32" height="32" viewBox="0 0 32 32"><path d="M31.539,8.194V29.481a1.987,1.987,0,0,1-2.007,1.955H3.431a1.987,1.987,0,0,1-2.007-1.955V4.061A1.987,1.987,0,0,1,3.431,2.107H25.576Z" style="fill:#d0d2d3"/><polyline points="31.41 31.131 0.461 31.131 0.461 0.182" style="fill:none"/><path d="M30.447,7.164V28.228a1.94,1.94,0,0,1-1.934,1.935H3.358a1.94,1.94,0,0,1-1.934-1.935V3.074A1.94,1.94,0,0,1,3.358,1.139H24.7Z" style="fill:#fff;stroke:#ff9036;stroke-miterlimit:10;stroke-width:1.5px"/><path d="M24.094,7.376V9.554a13.576,13.576,0,0,1,6.259-1.737Z" style="fill:#d0d2d3"/><polyline points="30.447 7.166 24.338 7.107 24.386 1.544" style="fill:none;stroke:#ff9036;stroke-miterlimit:10;stroke-width:1.5px"/><path d="M5.574,18.443A2.413,2.413,0,0,0,6,19.731a2.724,2.724,0,0,0,2.248.811,3.363,3.363,0,0,0,1.676-.406,1.34,1.34,0,0,0,.724-1.254,1.07,1.07,0,0,0-.578-.98,6.939,6.939,0,0,0-1.461-.476L7.256,17.09a6.68,6.68,0,0,1-1.916-.709A2.115,2.115,0,0,1,4.24,14.5,2.862,2.862,0,0,1,5.276,12.2a4.164,4.164,0,0,1,2.785-.877,3.887,3.887,0,0,1,3.3,1.325,2.843,2.843,0,0,1,.615,1.81H10.39a1.9,1.9,0,0,0-.411-1.03,2.667,2.667,0,0,0-2.054-.659,2.505,2.505,0,0,0-1.476.363,1.128,1.128,0,0,0-.5.958,1.174,1.174,0,0,0,.659,1.041,3.987,3.987,0,0,0,1.122.41l1.131.27a8.851,8.851,0,0,1,2.472.85,2.246,2.246,0,0,1,.98,2.025,3.067,3.067,0,0,1-1.025,2.3,4.4,4.4,0,0,1-3.123.97,4.223,4.223,0,0,1-3.2-1.012A3.811,3.811,0,0,1,3.96,18.443Z" style="fill:#ff9036"/><path d="M14.178,11.584h1.6V13.31a3.81,3.81,0,0,1,.962-1.227A2.49,2.49,0,0,1,18.5,11.36q.047,0,.159.009c.074.007.2.019.382.038V13.18a2.371,2.371,0,0,0-.275-.038c-.084-.006-.175-.009-.275-.009a2.4,2.4,0,0,0-1.95.816,2.85,2.85,0,0,0-.682,1.881v5.749h-1.68Z" style="fill:#ff9036"/><path d="M27.1,12.116a3.936,3.936,0,0,1,1.273,2.827H26.74a3.02,3.02,0,0,0-.681-1.535,2.153,2.153,0,0,0-1.708-.611,2.361,2.361,0,0,0-2.3,1.566,6.223,6.223,0,0,0-.448,2.507,4.714,4.714,0,0,0,.635,2.526,2.176,2.176,0,0,0,2,1.026,2.188,2.188,0,0,0,1.656-.637,3.491,3.491,0,0,0,.845-1.744h1.633a4.38,4.38,0,0,1-1.4,2.908,4.364,4.364,0,0,1-2.865.919,3.823,3.823,0,0,1-3.126-1.432,5.487,5.487,0,0,1-1.166-3.58,6.023,6.023,0,0,1,1.279-4.1,4.127,4.127,0,0,1,3.256-1.466A4.359,4.359,0,0,1,27.1,12.116Z" style="fill:#ff9036"/><rect width="32" height="32" style="fill:none"/></svg>
