<svg xmlns="http://www.w3.org/2000/svg" width="16" height="16" viewBox="0 0 16 16"><path d="M6.118,1.844A22.641,22.641,0,0,1,4.482,5.531C3.676,6.88,1.471,8.9,1.619,11.174s.905,4.656,5.742,4.558,7.092-3.307,7.092-5.15a7.231,7.231,0,0,0-3.187-5.316A9.885,9.885,0,0,1,8.5,2.7C7.641,1.631,7.18.414,6.8.5S6.4,1.1,6.118,1.844Z" style="fill:#191347"/><path d="M6.9,1.73c-.289.133-1.35,4.228-2.534,5.4A7.368,7.368,0,0,0,2.392,11.01c.017.691.574,4.426,5.182,4.179s5.612-2.748,5.957-4.426S12.215,7.209,11.1,6.172,9.476,5.139,8.7,4.234C7.967,3.373,7.3,1.547,6.9,1.73Z" style="fill:#3851a3"/><rect width="16" height="16" style="fill:none"/><path d="M8.365,4.938a1.588,1.588,0,0,0,.378,1.053c.395.379,3.232,1.444,3.061,4.262-.164,2.7-4.657,2.122-3.515,4.294.3.578,2.5.23,4.058-1.645a3.917,3.917,0,0,0-.083-5.117c-.947-1.258-3.648-3.321-3.8-3.041S8.365,4.938,8.365,4.938Z" style="fill:#2b3086"/><path d="M6.539,5.991c-.395-.312-.445.313-1.4.988s-1,1.678-.477,1.974a1.226,1.226,0,0,0,1.876-.84A3.639,3.639,0,0,0,6.539,5.991Z" style="fill:#60c9dd"/><path d="M4.433,10.006a.673.673,0,0,0-1.086.329c-.115.494-.362,1.2,0,1.349a.738.738,0,0,0,1.086-.428C4.647,10.648,4.614,10.187,4.433,10.006Z" style="fill:#60c9dd"/></svg>
